<svg xmlns="http://www.w3.org/2000/svg" width="600" height="400" viewBox="0 0 600 400" fill="none">
  <!-- Background Elements -->
  <circle cx="300" cy="200" r="150" fill="#E8EEFF" opacity="0.5"/>
  <circle cx="350" cy="150" r="100" fill="#D1DEFF" opacity="0.7"/>
  
  <!-- Financial Building/Bank -->
  <rect x="200" y="150" width="200" height="150" fill="#1E3A8A" rx="5"/>
  <rect x="210" y="160" width="180" height="140" fill="#FFFFFF" rx="3"/>
  
  <!-- Columns -->
  <rect x="220" y="120" width="20" height="30" fill="#1E3A8A"/>
  <rect x="260" y="120" width="20" height="30" fill="#1E3A8A"/>
  <rect x="300" y="120" width="20" height="30" fill="#1E3A8A"/>
  <rect x="340" y="120" width="20" height="30" fill="#1E3A8A"/>
  <rect x="380" y="120" width="20" height="30" fill="#1E3A8A"/>
  
  <!-- Roof -->
  <polygon points="190,120 410,120 300,80" fill="#1E3A8A"/>
  
  <!-- Windows -->
  <rect x="230" y="180" width="30" height="30" fill="#E8EEFF" rx="2"/>
  <rect x="280" y="180" width="30" height="30" fill="#E8EEFF" rx="2"/>
  <rect x="330" y="180" width="30" height="30" fill="#E8EEFF" rx="2"/>
  
  <rect x="230" y="230" width="30" height="30" fill="#E8EEFF" rx="2"/>
  <rect x="280" y="230" width="30" height="30" fill="#E8EEFF" rx="2"/>
  <rect x="330" y="230" width="30" height="30" fill="#E8EEFF" rx="2"/>
  
  <!-- Door -->
  <rect x="280" y="260" width="40" height="40" fill="#1E3A8A" rx="2"/>
  <rect x="295" y="280" width="10" height="10" fill="#FF9800"/>
  
  <!-- Person -->
  <circle cx="150" cy="270" r="20" fill="#FF9800"/>
  <rect x="145" y="290" width="10" height="40" fill="#1E3A8A"/>
  <rect x="135" y="310" width="30" height="10" fill="#1E3A8A"/>
  <rect x="135" y="330" width="10" height="20" fill="#1E3A8A"/>
  <rect x="155" y="330" width="10" height="20" fill="#1E3A8A"/>
  
  <!-- Briefcase -->
  <rect x="170" y="310" width="25" height="20" fill="#FF9800" rx="3"/>
  <rect x="180" y="305" width="5" height="5" fill="#FF9800"/>
  
  <!-- Financial Graph -->
  <rect x="430" y="200" width="100" height="150" fill="#FFFFFF" stroke="#1E3A8A" stroke-width="2" rx="5"/>
  
  <!-- Graph Lines -->
  <polyline points="440,320 460,300 480,310 500,280 520,260" stroke="#FF9800" stroke-width="3" fill="none"/>
  <polyline points="440,320 460,290 480,300 500,270 520,250" stroke="#1E3A8A" stroke-width="3" fill="none"/>
  
  <!-- Graph Dots -->
  <circle cx="440" cy="320" r="4" fill="#FF9800"/>
  <circle cx="460" cy="300" r="4" fill="#FF9800"/>
  <circle cx="480" cy="310" r="4" fill="#FF9800"/>
  <circle cx="500" cy="280" r="4" fill="#FF9800"/>
  <circle cx="520" cy="260" r="4" fill="#FF9800"/>
  
  <circle cx="440" cy="320" r="4" fill="#1E3A8A"/>
  <circle cx="460" cy="290" r="4" fill="#1E3A8A"/>
  <circle cx="480" cy="300" r="4" fill="#1E3A8A"/>
  <circle cx="500" cy="270" r="4" fill="#1E3A8A"/>
  <circle cx="520" cy="250" r="4" fill="#1E3A8A"/>
  
  <!-- Rupee Symbol -->
  <circle cx="100" cy="150" r="40" fill="#FF9800" opacity="0.9"/>
  <path d="M90,130 L110,130 M100,130 L100,170 M90,150 L110,150 M90,130 C90,140 95,150 110,150" stroke="#FFFFFF" stroke-width="4" fill="none"/>
  
  <!-- Decorative Elements -->
  <circle cx="450" cy="100" r="20" fill="#FF9800" opacity="0.5"/>
  <circle cx="480" cy="120" r="15" fill="#1E3A8A" opacity="0.5"/>
  <circle cx="420" cy="130" r="10" fill="#FF9800" opacity="0.5"/>
</svg>